<svg xmlns="http://www.w3.org/2000/svg" viewBox="0 0 521 385.3">
<style>.a{fill:#00aeef;}.b{fill:#6d6e71;}</style>
<path class="a" d="M205.4,99.53s-29.4-7.9-58.7,2V50.13s29.2-12.6,58.6.2Z"/>
<polygon class="a" points="70.8 25.03 139.7 52.93 139.7 62.63 70.8 44.83 70.8 25.03"/>
		<polygon class="a" points="139.7 66.23 33.2 41.73 33.2 68.23 139.7 75.93 139.7 66.23"/>
			<polygon class="a" points="51.5 76.13 139.7 79.13 139.7 88.93 51.5 98.63 51.5 76.13"/>
				<path class="a" d="M89.5,103.23c0-1.4,0-2.8-.1-4.2l50.2-6.9v9.7l-50.1,15.7v-14.3Z"/>
				<polygon class="a" points="348.7 25.43 212.1 53.43 212.1 63.13 348.7 45.23 348.7 25.43"/>
					<polygon class="a" points="212.1 66.73 423.4 42.13 423.4 68.63 212.1 76.43 212.1 66.73"/>
						<polygon class="a" points="387.1 76.53 212.1 79.63 212.1 89.33 387.1 99.13 387.1 76.53"/>
							<path class="a" d="M311.6,103.63c0-1.4.1-2.8.2-4.2l-99.6-6.9v9.7l99.4,15.7v-14.3Z"/>
							<path class="b" d="M280.1,181.43h-5.9v-5.8H292v5.8h-6v26.2h-5.9v-26.2Z"/>
							<path class="b" d="M294.4,175.63h5.7v9.8c1.3-1.8,4-2.6,6.1-2.6a10,10,0,0,1,7.1,3.2c2.2,2.5,2.3,5.4,2.3,8.6v13h-5.8v-11.7c0-3.6-.4-7.4-4.9-7.4a4.47,4.47,0,0,0-3.9,2.1c-1,1.5-.9,3.7-.9,5.4v11.6h-5.7v-32Z"/>
							<path class="b" d="M325.4,198.23a6.54,6.54,0,0,0,6.3,4.6,7.38,7.38,0,0,0,5.4-2.1h6.4c-1.5,4.3-6.4,7.7-11.5,7.7a12.55,12.55,0,0,1-12.6-12.6,12.5,12.5,0,1,1,25-.3,24.77,24.77,0,0,1-.3,2.7Zm13.1-5.1a6.66,6.66,0,0,0-6.5-4.6,7,7,0,0,0-6.7,4.6Z"/>
							<path class="b" d="M364.6,198.63c0,2.6,2.1,4,4.5,4a4.06,4.06,0,0,0,4.2-4c0-3.5-2.9-4.5-5.6-5.4-2.1-.7-3.9-1.3-5.5-2.9a8.8,8.8,0,0,1-2.5-6.1,9.2,9.2,0,0,1,9.4-9.1c4.9,0,9.4,4.1,9.3,9.1h-6.1a3.46,3.46,0,0,0-3.6-3.3,3.21,3.21,0,0,0-3.2,3.4c0,2.3,2.1,3.2,4,3.9,2.3.8,4.4,1.4,6.2,2.9a8.7,8.7,0,0,1,3.4,7.3,10.2,10.2,0,0,1-10.4,10.1c-5.5,0-10.3-4.2-10.3-9.8h6.2Z"/>
							<path class="b" d="M407.1,195.73a12.68,12.68,0,0,1-12.8,12.7,12.75,12.75,0,1,1,.2-25.5A12.65,12.65,0,0,1,407.1,195.73Zm-17.7-5a7.15,7.15,0,0,0,4.9,12.1,6.94,6.94,0,0,0,7.1-7.1,7.15,7.15,0,0,0-7.1-7.2A7,7,0,0,0,389.4,190.73Z"/>
							<path class="b" d="M410.4,175.63h5.8v32h-5.8Z"/>
							<path class="b" d="M425.8,198.23a6.54,6.54,0,0,0,6.3,4.6,7.38,7.38,0,0,0,5.4-2.1h6.4c-1.5,4.3-6.4,7.7-11.5,7.7a12.55,12.55,0,0,1-12.6-12.6,12.5,12.5,0,1,1,25-.3,24.77,24.77,0,0,1-.3,2.7Zm13.1-5.1a6.75,6.75,0,0,0-6.5-4.6,7,7,0,0,0-6.7,4.6Z"/>
							<path class="b" d="M448.4,183.63h5.3v2.2h.1a7.93,7.93,0,0,1,6.5-3,9.32,9.32,0,0,1,6.8,3,4.35,4.35,0,0,1,.6.7c1.9,2.6,1.9,5.6,1.9,8.7v12.4h-5.8v-11.3c0-1.9,0-4.2-1-5.8a4.44,4.44,0,0,0-3.8-2,4.75,4.75,0,0,0-4,2.1c-1,1.6-1,4.2-1,6.1v10.9h-5.8v-24Z"/>
							<path class="b" d="M475.2,188.83h-2.8v-5.1h2.8v-8h5.7v8h3.5v5.1h-3.5v18.9h-5.7Z"/>
							<path class="b" d="M300.4,233.33h-5.9v-5.8h17.8v5.8h-6v26.2h-5.9v-26.2Z"/>
							<path class="b" d="M317.6,250.13a6.54,6.54,0,0,0,6.3,4.6,7.38,7.38,0,0,0,5.4-2.1h6.4c-1.5,4.3-6.4,7.7-11.5,7.7a12.55,12.55,0,0,1-12.6-12.6,12.5,12.5,0,1,1,25-.3,24.77,24.77,0,0,1-.3,2.7Zm13.1-5.1a6.75,6.75,0,0,0-6.5-4.6,7,7,0,0,0-6.7,4.6Z"/>
							<path class="b" d="M364.5,259.53h-5.3v-3.2h0a10.18,10.18,0,0,1-8.1,4,11.46,11.46,0,0,1-8.8-4,13.69,13.69,0,0,1-3-8.7,12.34,12.34,0,0,1,3.1-8.6,11.32,11.32,0,0,1,8.9-4.2,9.52,9.52,0,0,1,8,4.2v-3.4h5.3v23.9Zm-12.3-19.1a7.1,7.1,0,0,0-7.2,7.4,6.9,6.9,0,0,0,7.1,6.9,7.15,7.15,0,0,0,.1-14.3Z"/>
							<path class="b" d="M392.5,251.73a12.59,12.59,0,0,1-11.9,8.6,12.9,12.9,0,0,1-8.9-3.6,12.73,12.73,0,0,1,8.9-21.9c5.3,0,10.5,3.5,11.9,8.7H386a6.05,6.05,0,0,0-5.5-3.1,6.75,6.75,0,0,0-6.9,7,6.93,6.93,0,0,0,7.2,7.2,6.23,6.23,0,0,0,5.2-2.9Z"/>
							<path class="b" d="M396.5,227.63h5.8v9.8c1.3-1.8,4-2.6,6.1-2.6a9.61,9.61,0,0,1,7,3.2c2.2,2.5,2.3,5.4,2.3,8.6v13h-5.8v-11.7c0-3.6-.4-7.4-4.9-7.4a4.47,4.47,0,0,0-3.9,2.1c-1,1.5-.9,3.7-.9,5.4v11.6h-5.8v-32Z"/>
							<path class="b" d="M422.5,227.63h5.8v5.2h-5.8Zm0,8h5.8v24h-5.8Z"/>
							<path class="b" d="M432.8,235.63h5.3v2.2h.1a7.93,7.93,0,0,1,6.5-3,9.32,9.32,0,0,1,6.8,3,4.35,4.35,0,0,1,.6.7c1.9,2.6,1.9,5.6,1.9,8.7v12.4h-5.8v-11.3c0-1.9,0-4.2-1-5.8a4.44,4.44,0,0,0-3.8-2,4.75,4.75,0,0,0-4,2.1c-1,1.6-1,4.2-1,6.1v10.9h-5.8v-24Z"/>
							<path class="b" d="M482.9,235.63v20.3c0,3.7-.8,6.5-3.4,9.3a13.17,13.17,0,0,1-9.5,4.1,12.77,12.77,0,0,1-11.9-7.9h6.5a7.82,7.82,0,0,0,5.4,2.3,8.2,8.2,0,0,0,5.4-2c1.7-1.6,1.9-3.2,2.3-5.4l-.1-.1a9.39,9.39,0,0,1-7.7,4.1,12.85,12.85,0,0,1-8.6-3.8,13.41,13.41,0,0,1-3.6-9.3,12.42,12.42,0,0,1,12.3-12.4c3.1,0,6.1,1.3,7.5,4.1h.1v-3.3Zm-12.6,4.8a6.83,6.83,0,0,0-6.8,7,7.07,7.07,0,0,0,7.2,7.3,7,7,0,0,0,6.7-7.1A6.91,6.91,0,0,0,470.3,240.43Z"/><path class="b" d="M349.9,302.43c0,2.6,2.1,4,4.5,4a4.06,4.06,0,0,0,4.2-4c0-3.5-2.9-4.5-5.6-5.4-2.1-.7-3.9-1.3-5.5-2.9A8.8,8.8,0,0,1,345,288a9.2,9.2,0,0,1,9.4-9.1c4.9,0,9.4,4.1,9.3,9.1h-6.1a3.46,3.46,0,0,0-3.6-3.3,3.21,3.21,0,0,0-3.2,3.4c0,2.3,2.1,3.2,4,3.9,2.3.8,4.4,1.4,6.2,2.9a8.7,8.7,0,0,1,3.4,7.3,10.2,10.2,0,0,1-10.4,10.1c-5.5,0-10.3-4.2-10.3-9.8h6.2Z"/><path class="b" d="M391.6,303.63a12.59,12.59,0,0,1-11.9,8.6,12.9,12.9,0,0,1-8.9-3.6,12.73,12.73,0,0,1,8.9-21.9c5.3,0,10.5,3.5,11.9,8.7h-6.5a6.05,6.05,0,0,0-5.5-3.1,6.75,6.75,0,0,0-6.9,7,6.93,6.93,0,0,0,7.2,7.2,6.23,6.23,0,0,0,5.2-2.9Z"/>
							<path class="b" d="M395.6,279.53h5.8v9.8c1.3-1.8,4-2.6,6.1-2.6a9.61,9.61,0,0,1,7,3.2c2.2,2.5,2.3,5.4,2.3,8.6v13H411v-11.7c0-3.6-.4-7.4-4.9-7.4a4.47,4.47,0,0,0-3.9,2.1c-1,1.5-.9,3.7-.9,5.4v11.5h-5.8v-31.9Z"/>
							<path class="b" d="M446,299.53a12.75,12.75,0,1,1-12.6-12.8A12.74,12.74,0,0,1,446,299.53Zm-17.7-5a7.15,7.15,0,0,0,4.9,12.1,6.94,6.94,0,0,0,7.1-7.1,6.94,6.94,0,0,0-12-5Z"/>
							<path class="b" d="M473.7,299.53a12.75,12.75,0,1,1-12.6-12.8A12.74,12.74,0,0,1,473.7,299.53Zm-17.7-5a7.15,7.15,0,0,0,4.9,12.1,6.94,6.94,0,0,0,7.1-7.1,7.15,7.15,0,0,0-7.1-7.2A7,7,0,0,0,456,294.53Z"/><path class="b" d="M477,279.53h5.8v32H477Z"/>
							<path class="b" d="M325.6,331.43h4.6l13.4,32h-6.5l-3.5-8.3H322.3l-3.6,8.3h-6.5Zm5.8,17.9-3.4-9.7-3.4,9.7Z"/>
							<path class="b" d="M346.3,331.43h5.8v32h-5.8Z"/>
							<path class="b" d="M356.7,331.43h5.8v32h-5.8Z"/>
							<path class="b" d="M367.1,331.43h5.8v5.2h-5.8Zm0,8h5.8v24h-5.8Z"/>
							<path class="b" d="M401.7,363.33h-5.3v-3.2h-.1a10.18,10.18,0,0,1-8.1,4,11.46,11.46,0,0,1-8.8-4,13.69,13.69,0,0,1-3-8.7,12.34,12.34,0,0,1,3.1-8.6,11.32,11.32,0,0,1,8.9-4.2,9.52,9.52,0,0,1,8,4.2v-3.4h5.3v23.9Zm-12.3-19.1a7.1,7.1,0,0,0-7.2,7.4,6.9,6.9,0,0,0,7.1,6.9,7.15,7.15,0,0,0,.1-14.3Z"/>
							<path class="b" d="M406,339.43h5.3v2.2h.1a7.93,7.93,0,0,1,6.5-3,9.32,9.32,0,0,1,6.8,3,4.35,4.35,0,0,1,.6.7c1.9,2.6,1.9,5.6,1.9,8.7v12.4h-5.8v-11.3c0-1.9,0-4.2-1-5.8a4.44,4.44,0,0,0-3.8-2,4.75,4.75,0,0,0-4,2.1c-1,1.6-1,4.2-1,6.1v10.9h-5.8v-24Z"/>
							<path class="b" d="M455.6,355.63a12.59,12.59,0,0,1-11.9,8.6,12.9,12.9,0,0,1-8.9-3.6,12.73,12.73,0,0,1,8.9-21.9c5.3,0,10.5,3.5,11.9,8.7h-6.5a6.05,6.05,0,0,0-5.5-3.1,6.75,6.75,0,0,0-6.9,7,6.93,6.93,0,0,0,7.2,7.2,6.23,6.23,0,0,0,5.2-2.9Z"/>
							<path class="b" d="M464.7,353.93a6.54,6.54,0,0,0,6.3,4.6,7.38,7.38,0,0,0,5.4-2.1h6.4c-1.5,4.3-6.4,7.7-11.5,7.7a12.55,12.55,0,0,1-12.6-12.6,12.5,12.5,0,1,1,25-.3,24.77,24.77,0,0,1-.3,2.7Zm13.1-5.1a6.75,6.75,0,0,0-6.5-4.6,7,7,0,0,0-6.7,4.6Z"/>
							<path class="b" d="M214.5,110.73l2.3,48.9s-38-33.9-75.7-46.3C141.2,113.33,173.4,95.73,214.5,110.73Z"/>
							<path class="b" d="M140.7,121.73c1.6,1.6,28.6,7.8,77,47.3l3.6,53.1s-43.7-37.5-82.2-50.5Z"/>
							<path class="b" d="M137.8,181.33c1.7,1.7,31.1,8.5,83.6,51.4l4,57.6s-47.5-40.7-89.3-54.8Z"/>
							<path class="b" d="M210.9,44.43s-33.9-17.7-68.6-.2l.2-11.6s33.8-18.8,68.6.3Z"/>
							<path class="b" d="M135.4,244.53c1.9,2,33.2,9.8,91.1,59.3l4.7,61.4s-69.2-13-96.7-95.3Z"/>
						</svg>