<?xml version="1.0" standalone="no"?>
<!DOCTYPE svg PUBLIC "-//W3C//DTD SVG 20010904//EN"
 "http://www.w3.org/TR/2001/REC-SVG-20010904/DTD/svg10.dtd">
<svg version="1.0" xmlns="http://www.w3.org/2000/svg"
 width="16.000000pt" height="16.000000pt" viewBox="0 0 16.000000 16.000000"
 preserveAspectRatio="xMidYMid meet">
<metadata>
Created by potrace 1.11, written by Peter Selinger 2001-2013
</metadata>
<g transform="translate(0.000000,16.000000) scale(0.001101,-0.001101)"
fill="#000000" stroke="none">
<path d="M3420 10505 c-188 -61 -271 -301 -162 -464 38 -56 110 -106 191 -131
85 -27 159 -68 184 -101 27 -37 33 -108 13 -146 -47 -92 -160 -107 -236 -31
-20 19 -30 40 -30 59 l0 29 -105 0 -105 0 0 -37 c0 -51 48 -149 96 -197 22
-21 64 -51 94 -65 48 -23 68 -26 155 -26 119 0 171 21 248 97 61 61 89 124 95
214 6 96 -15 167 -69 228 -50 57 -96 84 -218 131 -51 19 -106 44 -121 55 -59
42 -64 124 -11 174 54 52 150 28 179 -45 l15 -39 99 0 98 0 0 28 c0 88 -80
201 -176 248 -67 33 -167 41 -234 19z"/>
<path d="M620 10400 l0 -100 100 0 100 0 0 -445 0 -445 100 0 100 0 0 445 0
445 100 0 100 0 0 100 0 100 -300 0 -300 0 0 -100z"/>
<path d="M1252 9958 l3 -543 97 -3 97 -3 3 268 c3 249 4 270 24 303 60 103
193 108 266 10 29 -39 38 -127 38 -362 l0 -218 96 0 95 0 -3 303 -3 302 -28
57 c-48 98 -140 163 -246 174 -74 8 -149 -9 -201 -47 l-40 -29 -2 163 -3 162
-98 3 -97 3 2 -543z"/>
<path d="M4775 10488 c-3 -7 -4 -251 -3 -543 l3 -530 98 -3 97 -3 0 546 0 545
-95 0 c-67 0 -97 -4 -100 -12z"/>
<path d="M6717 10493 c-4 -3 -7 -66 -7 -140 l0 -133 -45 0 -45 0 0 -85 0 -85
45 0 45 0 2 -317 3 -318 98 -3 97 -3 0 321 0 320 55 0 55 0 0 85 0 85 -55 0
-55 0 0 140 0 140 -93 0 c-52 0 -97 -3 -100 -7z"/>
<path d="M4220 10236 c-232 -50 -382 -285 -329 -515 29 -126 120 -239 236
-293 87 -41 219 -51 304 -23 118 39 209 120 263 234 29 62 31 73 31 181 0 111
-1 118 -34 182 -62 124 -185 217 -318 238 -70 12 -83 12 -153 -4z m186 -205
c114 -52 165 -198 110 -316 -40 -88 -114 -135 -211 -135 -66 0 -116 22 -169
77 -104 107 -74 292 59 365 62 34 148 38 211 9z"/>
<path d="M6175 10236 c-21 -8 -58 -29 -82 -45 l-43 -31 0 30 0 30 -90 0 -90 0
2 -402 3 -403 95 0 95 0 5 272 c5 254 6 273 26 299 39 53 71 69 134 69 67 0
102 -20 135 -76 18 -31 20 -55 23 -302 l3 -268 97 3 97 3 0 295 c0 286 -1 297
-23 344 -56 123 -147 186 -275 193 -47 2 -86 -2 -112 -11z"/>
<path d="M2269 10216 c-108 -44 -169 -95 -222 -187 -84 -145 -72 -338 31 -474
42 -57 142 -128 205 -147 70 -22 212 -16 280 11 91 36 203 137 222 199 6 22 6
22 -104 22 -68 0 -112 -4 -117 -11 -3 -6 -26 -19 -51 -30 -99 -42 -234 -11
-287 67 -14 21 -26 44 -26 51 0 10 66 13 310 13 l309 0 7 36 c25 133 -49 303
-171 396 -101 78 -272 101 -386 54z m190 -167 c58 -12 123 -56 151 -102 11
-18 20 -35 20 -39 0 -5 -99 -8 -220 -8 l-221 0 15 28 c29 57 95 106 161 123
43 10 39 10 94 -2z"/>
<path d="M5303 10226 c-105 -34 -205 -125 -256 -234 -30 -63 -32 -74 -32 -177
0 -103 2 -114 32 -177 68 -144 198 -235 350 -245 119 -8 207 22 312 106 39 31
101 112 101 133 0 4 -46 8 -102 8 -94 0 -108 -3 -162 -30 -125 -63 -260 -28
-317 83 l-19 37 313 0 314 0 6 50 c20 169 -82 348 -241 423 -58 27 -79 32
-162 34 -61 2 -110 -2 -137 -11z m232 -198 c53 -27 73 -46 96 -90 l19 -38
-220 0 c-121 0 -220 4 -220 8 0 5 13 27 29 49 69 95 189 124 296 71z"/>
<path d="M7445 8970 c247 -89 432 -198 580 -341 194 -187 297 -394 327 -651
l11 -98 243 0 244 0 0 65 c0 197 -94 420 -245 583 -233 251 -690 433 -1200
476 l-70 6 110 -40z"/>
<path d="M8113 8940 c468 -167 766 -456 863 -837 13 -52 24 -112 24 -132 0
-20 3 -53 6 -73 l7 -38 245 0 245 0 -7 83 c-20 236 -107 422 -276 588 -49 47
-120 107 -159 133 -223 147 -547 257 -884 301 -176 22 -185 19 -64 -25z"/>
<path d="M5500 8955 c-164 -31 -336 -106 -465 -203 -213 -159 -353 -371 -417
-630 -25 -103 -30 -320 -10 -417 63 -294 229 -552 447 -695 113 -73 215 -120
495 -225 335 -126 427 -174 529 -276 163 -163 180 -456 37 -632 -95 -118 -239
-181 -411 -181 -261 0 -444 137 -500 376 -8 35 -15 78 -15 96 l0 32 -365 0
-365 0 0 -44 c0 -69 28 -213 61 -310 170 -509 661 -830 1228 -803 578 28 1049
446 1147 1017 22 129 15 372 -14 482 -51 188 -148 356 -291 499 -155 155 -293
230 -686 374 -322 117 -440 178 -532 273 -59 62 -78 122 -77 247 0 120 23 188
86 259 143 163 449 164 593 3 65 -71 89 -128 121 -284 l4 -23 362 0 361 0 -7
76 c-23 252 -166 542 -349 710 -137 125 -298 212 -486 261 -121 32 -362 41
-481 18z"/>
<path d="M11937 8453 c-4 -3 -7 -138 -7 -300 l0 -293 330 0 330 0 0 -1410 0
-1410 325 0 325 0 0 1410 0 1410 330 0 330 0 -2 298 -3 297 -976 3 c-536 1
-979 -1 -982 -5z"/>
<path d="M9675 8437 c-3 -7 -4 -140 -3 -297 l3 -285 413 -3 412 -2 0 -1405 0
-1405 315 0 315 0 0 1405 0 1405 315 0 315 0 0 300 0 300 -1040 0 c-829 0
-1042 -3 -1045 -13z"/>
<path d="M4330 8264 c-849 -565 -1351 -1359 -1466 -2319 -29 -248 -22 -601 17
-832 l11 -63 408 0 408 0 -67 133 c-288 569 -278 1217 31 1942 153 360 422
791 688 1105 35 41 70 83 78 93 8 9 13 17 11 17 -3 0 -56 -34 -119 -76z"/>
<path d="M4333 7892 c-102 -158 -131 -206 -208 -348 -264 -481 -408 -919 -446
-1356 -19 -221 6 -476 66 -682 34 -118 122 -301 186 -387 l51 -69 426 0 427 0
-60 39 c-327 214 -530 566 -612 1061 -28 168 -25 679 5 900 36 267 123 657
187 844 8 22 13 42 11 43 -1 2 -16 -18 -33 -45z"/>
<path d="M8189 7690 c-541 -55 -987 -443 -1125 -978 -35 -134 -44 -384 -20
-531 46 -275 175 -521 376 -721 189 -188 409 -306 668 -357 118 -23 357 -22
467 1 371 80 661 284 844 594 30 52 121 256 121 273 0 5 -146 9 -343 9 l-343
0 -69 -71 c-145 -147 -276 -210 -440 -212 -107 -1 -176 14 -270 58 -278 133
-442 460 -381 765 11 56 34 121 68 189 43 89 62 116 132 185 131 131 263 189
430 188 187 -2 340 -77 496 -244 l55 -59 342 3 342 3 -52 120 c-71 165 -113
236 -196 332 -151 174 -349 311 -559 387 -155 55 -381 83 -543 66z"/>
<path d="M9670 6345 l0 -1305 320 0 320 0 0 1305 0 1305 -320 0 -320 0 0
-1305z"/>
<path d="M755 4656 c-41 -18 -83 -69 -91 -111 -15 -82 27 -141 131 -183 51
-20 73 -35 83 -54 37 -79 -83 -135 -124 -57 -13 26 -20 29 -64 29 -53 0 -56
-3 -39 -47 27 -72 113 -122 188 -108 86 15 141 82 141 172 0 79 -30 112 -140
157 -35 14 -67 32 -72 39 -27 43 20 100 67 79 13 -6 26 -20 30 -31 5 -18 15
-21 56 -21 41 0 49 3 49 19 0 24 -38 79 -71 104 -34 25 -105 31 -144 13z"/>
<path d="M3400 4653 c-154 -53 -228 -230 -156 -376 32 -67 81 -110 154 -137
104 -39 199 -17 280 66 28 29 52 58 52 64 0 6 -25 10 -58 10 -49 0 -62 -4 -81
-24 -31 -33 -96 -48 -146 -35 -72 20 -135 107 -135 184 1 32 35 98 66 126 62
56 165 58 217 3 18 -19 32 -24 80 -24 37 0 57 4 57 12 0 6 -24 35 -54 64 -81
79 -177 102 -276 67z"/>
<path d="M1492 4398 l3 -263 47 -3 46 -3 4 139 c3 156 13 182 70 182 72 0 88
-37 88 -201 l0 -119 45 0 45 0 0 145 c0 164 -9 199 -60 235 -42 30 -108 37
-151 16 -17 -9 -34 -16 -36 -16 -1 0 -3 34 -3 75 l0 75 -50 0 -50 0 2 -262z"/>
<path d="M2860 4395 l0 -265 45 0 45 0 0 265 0 265 -45 0 -45 0 0 -265z"/>
<path d="M4690 4595 c0 -63 -1 -65 -25 -65 -23 0 -25 -4 -25 -45 0 -41 2 -45
25 -45 l25 0 0 -155 0 -155 45 0 44 0 3 153 3 152 28 3 c25 3 27 7 27 48 0 42
-1 44 -30 44 l-30 0 0 65 0 65 -45 0 -45 0 0 -65z"/>
<path d="M5870 4580 l0 -79 -42 19 c-81 37 -167 16 -226 -56 -109 -132 -19
-344 146 -344 22 0 59 11 86 25 44 23 46 24 46 5 0 -17 7 -20 45 -20 l45 0 0
265 0 265 -50 0 -50 0 0 -80z m-58 -141 c57 -26 81 -103 53 -163 -41 -86 -157
-89 -200 -6 -53 102 46 216 147 169z"/>
<path d="M6252 4398 l3 -263 48 -3 47 -3 0 265 0 266 -50 0 -50 0 2 -262z"/>
<path d="M6880 4615 l0 -45 45 0 45 0 0 45 0 45 -45 0 -45 0 0 -45z"/>
<path d="M7070 4595 c0 -63 -1 -65 -25 -65 -23 0 -25 -4 -25 -44 0 -39 3 -45
23 -48 22 -3 22 -6 25 -155 l3 -153 44 0 45 0 0 155 0 155 31 0 c29 0 30 1 27
43 -3 38 -6 42 -30 45 -27 3 -28 5 -28 68 l0 64 -45 0 -45 0 0 -65z"/>
<path d="M7270 4615 l0 -45 50 0 50 0 0 45 0 45 -50 0 -50 0 0 -45z"/>
<path d="M7940 4395 l0 -265 45 0 45 0 0 265 0 265 -45 0 -45 0 0 -265z"/>
<path d="M8280 4615 l0 -45 45 0 45 0 2 -217 3 -218 47 -3 48 -3 2 218 3 218
48 3 47 3 0 45 0 44 -145 0 -145 0 0 -45z"/>
<path d="M9980 4395 l0 -265 45 0 45 0 0 108 c0 162 20 212 84 212 60 0 70
-24 76 -179 l5 -136 48 -3 49 -3 -4 155 c-3 168 -8 183 -70 229 -36 27 -107
33 -146 13 -17 -9 -34 -16 -37 -16 -4 0 -5 34 -3 75 l3 75 -47 0 -48 0 0 -265z"/>
<path d="M11260 4616 l0 -45 48 -3 47 -3 3 -217 2 -218 45 0 45 0 2 218 3 217
48 3 47 3 0 45 0 44 -145 0 -145 0 0 -44z"/>
<path d="M12290 4615 l0 -45 45 0 45 0 0 45 0 45 -45 0 -45 0 0 -45z"/>
<path d="M12900 4615 l0 -45 45 0 45 0 0 45 0 45 -45 0 -45 0 0 -45z"/>
<path d="M1155 4521 c-127 -57 -163 -216 -73 -325 87 -106 257 -98 331 16 l28
43 -51 3 c-43 3 -56 -1 -81 -22 -46 -39 -101 -36 -145 8 -30 30 -34 40 -34 86
0 46 4 56 34 86 44 44 103 48 142 9 20 -21 35 -25 80 -25 l55 0 -15 28 c-50
95 -173 138 -271 93z"/>
<path d="M2023 4516 c-73 -35 -106 -87 -111 -175 -4 -82 22 -138 86 -184 34
-25 55 -32 105 -35 81 -5 138 24 185 92 28 42 32 57 32 111 0 119 -73 202
-186 211 -49 4 -68 1 -111 -20z m146 -81 c53 -27 75 -108 46 -165 -21 -41 -53
-60 -101 -60 -108 0 -152 136 -68 209 39 35 78 40 123 16z"/>
<path d="M2512 4529 c-19 -6 -53 -30 -77 -53 -81 -82 -86 -191 -13 -280 122
-149 368 -60 368 134 0 142 -136 239 -278 199z m137 -105 c65 -55 57 -164 -16
-202 -71 -38 -163 17 -163 97 0 111 101 171 179 105z"/>
<path d="M3894 4526 c-101 -44 -152 -181 -104 -281 26 -55 49 -79 100 -105 84
-43 206 -10 253 69 26 44 22 51 -31 51 -39 0 -53 -5 -72 -25 -35 -38 -98 -35
-139 6 -17 17 -31 35 -31 40 0 5 67 9 156 9 l157 0 -6 62 c-7 76 -42 131 -106
165 -51 26 -127 30 -177 9z m116 -76 c18 0 70 -53 70 -71 0 -17 -8 -19 -105
-19 -118 0 -127 7 -75 59 30 29 62 42 88 35 8 -2 17 -4 22 -4z"/>
<path d="M4372 4521 c-39 -25 -42 -25 -42 -6 0 11 -11 15 -40 15 l-40 0 0
-200 0 -200 45 0 45 0 0 119 c0 154 18 200 77 201 68 1 83 -35 83 -195 l0
-126 48 3 47 3 0 145 c0 159 -9 190 -67 233 -39 29 -115 33 -156 8z"/>
<path d="M5013 4520 c-27 -16 -33 -17 -33 -5 0 11 -11 15 -40 15 l-40 0 0
-200 0 -200 45 0 45 0 0 123 c0 137 9 165 58 186 29 13 32 19 32 58 0 50 -15
55 -67 23z"/>
<path d="M5215 4521 c-77 -35 -115 -102 -115 -198 1 -172 200 -266 331 -156
26 22 59 71 59 88 0 3 -21 5 -46 5 -35 0 -54 -6 -76 -25 -43 -36 -100 -34
-139 4 -16 16 -29 34 -29 40 0 7 49 11 149 11 142 0 150 1 156 21 19 60 -46
178 -119 213 -45 21 -121 20 -171 -3z m172 -108 c40 -49 33 -53 -82 -53 -95 0
-105 2 -105 18 0 10 11 29 24 41 50 47 123 44 163 -6z"/>
<path d="M6567 4520 c-32 -17 -37 -18 -37 -4 0 12 -9 14 -42 12 l-43 -3 0
-195 0 -195 48 -3 47 -3 0 136 c0 131 1 137 25 160 25 26 63 32 95 15 28 -15
40 -72 40 -197 l0 -113 45 0 45 0 0 148 c0 170 -10 202 -76 239 -48 28 -98 29
-147 3z"/>
<path d="M7568 4530 c-79 -24 -130 -101 -130 -198 0 -96 35 -160 107 -193 55
-25 112 -24 168 5 44 22 47 22 47 5 0 -16 8 -19 45 -19 l45 0 0 200 0 200 -45
0 c-37 0 -45 -3 -45 -19 0 -17 -3 -17 -47 5 -47 24 -96 29 -145 14z m140 -96
c29 -20 52 -66 52 -104 0 -68 -49 -120 -113 -120 -88 0 -137 79 -106 169 21
61 115 92 167 55z"/>
<path d="M8690 4518 c-69 -37 -104 -94 -108 -176 -3 -56 0 -74 20 -112 68
-127 235 -147 332 -39 50 54 47 69 -10 69 -35 0 -54 -6 -76 -25 -43 -36 -100
-34 -139 4 -16 16 -29 34 -29 40 0 7 54 11 153 13 l152 3 -1 52 c-3 106 -80
184 -189 191 -49 3 -68 -1 -105 -20z m178 -103 c42 -49 33 -55 -83 -55 -115 0
-123 5 -84 54 40 50 123 51 167 1z"/>
<path d="M9162 4527 c-42 -13 -90 -60 -109 -106 -29 -70 -12 -192 35 -245 26
-29 92 -56 138 -56 23 0 60 10 87 24 44 22 47 22 47 5 0 -16 8 -19 45 -19 l45
0 0 200 0 200 -45 0 c-37 0 -45 -3 -45 -19 0 -17 -3 -17 -47 5 -49 25 -97 29
-151 11z m146 -93 c29 -20 52 -66 52 -104 0 -68 -49 -120 -113 -120 -88 0
-137 79 -106 169 21 61 115 92 167 55z"/>
<path d="M9633 4515 c-72 -36 -106 -89 -111 -170 -5 -83 23 -143 86 -185 79
-52 169 -52 241 0 34 25 71 74 71 95 0 3 -24 5 -53 5 -44 0 -58 -4 -77 -25
-17 -18 -34 -25 -59 -25 -109 0 -158 127 -82 209 38 41 95 43 139 6 23 -20 41
-25 81 -25 28 0 51 2 51 5 0 19 -35 68 -62 88 -72 53 -148 60 -225 22z"/>
<path d="M10509 4520 c-126 -67 -157 -226 -63 -330 93 -102 263 -87 326 30
l18 35 -51 3 c-44 3 -56 -1 -78 -22 -37 -35 -89 -35 -130 0 -58 49 -47 54 120
54 l151 0 -4 60 c-5 76 -44 135 -108 168 -55 28 -131 29 -181 2z m125 -74 c35
-15 79 -63 70 -77 -6 -10 -214 -13 -214 -4 0 4 6 18 14 33 15 28 44 47 94 61
1 1 17 -5 36 -13z"/>
<path d="M10990 4523 c-17 -12 -25 -13 -28 -5 -2 7 -23 12 -48 12 l-44 0 0
-200 0 -200 45 0 45 0 0 123 c0 137 9 165 58 186 29 13 32 19 32 58 0 49 -17
56 -60 26z"/>
<path d="M11696 4519 c-21 -17 -26 -18 -26 -5 0 12 -10 16 -40 16 l-40 0 0
-200 0 -200 45 0 45 0 0 125 c0 142 8 170 56 185 32 11 34 14 34 56 0 40 -2
44 -24 44 -13 0 -35 -9 -50 -21z"/>
<path d="M11914 4529 c-40 -11 -100 -73 -115 -116 -6 -19 -9 -65 -7 -103 3
-54 9 -76 32 -108 54 -78 152 -102 239 -59 43 22 46 23 50 5 4 -14 15 -18 46
-18 l41 0 0 200 0 200 -41 0 c-31 0 -42 -4 -46 -18 -4 -18 -7 -17 -50 5 -48
24 -95 28 -149 12z m156 -106 c77 -69 32 -213 -66 -213 -50 0 -82 16 -104 52
-70 116 71 249 170 161z"/>
<path d="M12592 4521 c-39 -25 -42 -25 -42 -6 0 11 -11 15 -40 15 l-40 0 0
-200 0 -200 44 0 44 0 4 134 c3 126 4 136 27 160 37 39 85 36 111 -6 17 -28
20 -51 20 -161 l0 -128 48 3 47 3 0 145 c0 159 -9 190 -67 233 -39 29 -115 33
-156 8z"/>
<path d="M13203 4520 c-27 -16 -33 -17 -33 -5 0 11 -12 15 -45 15 l-45 0 0
-201 0 -200 48 3 47 3 5 138 c5 132 6 140 29 158 34 27 79 21 105 -14 17 -24
21 -46 24 -157 l4 -130 44 0 44 0 0 142 c0 123 -3 147 -21 184 -36 75 -138
106 -206 64z"/>
<path d="M13614 4522 c-135 -64 -160 -258 -45 -355 63 -53 164 -61 222 -18 32
24 37 15 14 -29 -30 -58 -127 -78 -174 -36 -12 11 -37 16 -75 16 l-57 0 18
-31 c23 -42 94 -86 148 -95 61 -9 142 17 182 58 57 59 63 86 63 303 l0 195
-40 0 c-33 0 -40 -3 -40 -20 0 -25 -4 -25 -40 2 -41 30 -122 35 -176 10z m145
-87 c30 -15 61 -69 61 -104 0 -12 -6 -36 -14 -54 -47 -114 -216 -72 -216 53 0
93 88 147 169 105z"/>
<path d="M6880 4330 l0 -200 45 0 45 0 0 200 0 200 -45 0 -45 0 0 -200z"/>
<path d="M7274 4517 c-2 -7 -3 -96 -2 -197 l3 -185 48 -3 47 -3 0 200 0 201
-45 0 c-28 0 -48 -5 -51 -13z"/>
<path d="M12290 4330 l0 -200 45 0 45 0 0 200 0 200 -45 0 -45 0 0 -200z"/>
<path d="M12900 4330 l0 -200 45 0 45 0 0 200 0 200 -45 0 -45 0 0 -200z"/>
</g>
</svg>
