<svg viewBox="0 0 107.32 89.01" class="thumbnail">
  <path d="M35.32,27.5c5,0-2.36,10.42,9.5,15.5,3.5,1.5-6.5.5-10,1-6.45.92-9.55,4.83-10,8-.5,3.5,0,13,0,13H.82S.09,47.49.82,38c.5-6.5,6.5-11.5,15-11C25.32,27.56,28.32,27.5,35.32,27.5Z"/>
  <circle cx="22.82" cy="13" r="12"/>
  <path d="M75.5,27C71,27,77.72,37.42,67,42.5c-3.15,1.5,4.69-.92,8.9,1,4.38,2,6.38,4,8,8,1.32,3.27,1,13,1,13h21.59s.66-17.51,0-27c-.45-6.5-3.21-10-13.21-10C84.76,27.5,81.79,27,75.5,27Z"/>
  <circle cx="88.82" cy="13" r="12"/>
  <circle cx="55.82" cy="28" r="15.5"/>
  <path d="M27.32,88.5h55v-32c0-4-4-10-9-10h-35c-6,0-11,5-11,9Z"/>
</svg>
