<svg viewBox="0 0 148 148" class="thumbnail">
	<rect x="30.5" y="30.5" width="87" height="87"/>
	<rect x="41" width="5" height="20"/>
	<rect x="61" width="5" height="20"/>
	<rect x="81" width="5" height="20"/>
	<rect x="102" width="5" height="20"/>
	<rect x="43" y="128" width="5" height="20"/>
	<rect x="63" y="128" width="5" height="20"/>
	<rect x="83" y="128" width="5" height="20"/>
	<rect x="104" y="128" width="5" height="20"/>
	<rect x="128" y="41" width="20" height="5"/>
	<rect x="128" y="61" width="20" height="5"/>
	<rect x="128" y="81" width="20" height="5"/>
	<rect x="128" y="102" width="20" height="5"/>
	<rect y="41" width="20" height="5"/>
	<rect y="61" width="20" height="5"/>
	<rect y="81" width="20" height="5"/>
	<rect y="102" width="20" height="5"/>
</svg>
