<svg viewBox="0 0 329.1 334" class="thumbnail">
	<path d="M214.8,112.5c0,0-14.4-25.4-19-34c-7-13-26-4-18,13c4.4,9.3,16.4,29.8,23,42c7,13,19,4,19,4l16-11l-2,52
		c0,0-27.8,34.5-37,46c-8,10-4,20-4,20s11,45.1,15,61c5,20,29,12,28,1c-0.3-3.1-7-57-7-57l23,5c0,0,11,48.6,14,65c4,22,28,14,27,0
		c-1.2-17.1-10-68-10-68s10-1,17-4c15.2-6.5,15-9,15-9l-27-60l6-57l12,3c0,0-4.2,24-5,33c-1,11,14,17,17,7s9.4-36.5,11-49
		c1-8,0-13-11-16c-15.3-4.2-36.5-9-54-9C238.8,90.5,214.8,112.5,214.8,112.5z"/>
	<circle cx="260.8" cy="54.5" r="27"/>
	<path d="M57.8,213.5l26,23c0,0-45.4,68.3-60,92c-8,13-32,1-21-18C17.2,285.7,57.8,213.5,57.8,213.5z"/>
	<path d="M119.8,75.5c4.2-1.7,54.1-54.9,69-71c12-13,29,5,19,17c-19.1,22.9-72.5,80.7-75,86c-7,15-18,82-18,82
		s17,23.2,23,33c1.8,3,8.2,14.6,9,18c5.1,20.8,11.7,59,14,79c2,17-27,19-30,4c-3.8-19-16-75-16-75c-2-5-43.1-33.5-52-49
		c-2.6-4.6-4-15.7-4-21c0.1-14.8,13-64,13-64l-29,7c0,0-7.6,27.8-14,47c-4,12-28,10-23-8c4.7-16.8,11.8-35,16-54c2-9,12-9,28-13
		C73.6,87.6,114.8,77.5,119.8,75.5z"/>
	<circle cx="95.8" cy="44.5" r="29"/>
</svg>
