<svg viewBox="0 0 76.4 77.4" class="thumbnail">
	<path d="M63.7,4.7c-3-3-6,0-6,0l-49,50l14,14l50-51c0,0,2-2,0-4S65.7,6.7,63.7,4.7z M64.7,22.7l-11-11l3-3l11,11
		L64.7,22.7z"/>
	<g>
		<polygon points="74.7,61.7 69.7,66.7 68.7,65.7 73.7,60.7 71.2,58.2 67.7,61.7 66.7,60.7 70.2,57.2 67.2,54.2
			61.7,59.7 60.7,58.7 66.2,53.2 63.7,50.7 59.7,54.7 58.7,53.7 62.7,49.7 59.7,46.7 54.7,51.7 53.7,50.7 58.7,45.7 56.2,43.2
			52.7,46.7 51.7,45.7 55.2,42.2 53.2,40.2 39.7,53.7 62.7,76.7 75.7,62.7 	"/>
		<polygon points="36.2,23.2 34.7,21.7 29.7,26.7 28.7,25.7 33.7,20.7 30.7,17.7 26.7,21.7 25.7,20.7 29.7,16.7
			27.2,14.2 21.7,19.7 20.7,18.7 26.2,13.2 24.2,11.2 20.7,14.7 19.7,13.7 23.2,10.2 20.2,7.2 14.7,12.7 13.7,11.7 19.2,6.2
			16.7,3.7 13.7,6.7 12.7,5.7 15.7,2.7 13.7,0.7 0.7,14.7 22.7,36.7 	"/>
	</g>
	<path d="M7.7,56.7l13,13c0,0-17,6-18,5S7.7,56.7,7.7,56.7z"/>
</svg>
