<svg viewBox="0 0 126 147" class="thumbnail">
	<path d="M111.4,96.5c0.2-0.2,0.4-0.4,0.5-0.6c-1.1-1.4-2.4-3.4-2.9-5.9c-0.4-1.8-5.5,1-7,0c-1.5-1-1.8-5.4-1-7
		c1.1-2.3,6.6-6,9-5c1,0.4,0.9,3.8,2,4c1.4,0.2,2.6-4,4-4c1.5,0,2.6,3.6,3.9,5.8C123.8,76,126,67.3,126,58c0-1.4-0.1-2.7-0.2-4.1
		c-1.8,5.7-4.6,12.4-7.8,13.1c-2.6,0.5-5.4-7.4-8-7c-3.2,0.5-3.7,10.9-7,11c-3.4,0.1-4.6-10.9-8-11c-1.6,0-2.4,4.8-4,5
		c-2.8,0.3-6.9-8.9-9-7c-2.4,2.2,6.6,7.8,7,11c0.6,4.4-4.3,13.5-8,16c-2.1,1.4-8,2.6-10,1c-3.2-2.5,1-13.3-2-16c-1.5-1.3-6.5,1.3-8,0
		c-2.5-2.1-3.7-10.2-2-13c1.2-2,9.1-0.6,9-3c0-1.8-3.8-0.6-5-2c-1.8-2.1-3.3-9.5-1-11c1.7-1.1,5.3,5,7,4c1.5-0.9-2.6-5.3-2-7
		c0.8-2.4,3.7-7,6-8c3.2-1.4,10.7,1.3,14,0c3.5-1.3,7.5-8.7,11-10c2.7-1,8.9-0.6,13.8,0C101.2,7.7,85.5,0,68,0
		C53.2,0,39.7,5.6,29.4,14.7c2.7,0.7,6.8,1.7,8.6,1.3c1.6-0.4,3.5-3.6,5-4c3.7-1,13.8,0.3,15,4c2,5.9-5.9,23.2-12,22
		c-3.9-0.8-1.7-17.2-5-15c-3,2,2.3,16.3,0,21c-2.9,5.9-21,16-21,16s4.7,6,7,6c14,0,21.2,5.1,21,11c-0.2,5-9.8,11.5-12,16
		c-1,2,1.2,8.4-1,9c-2.5,0.6-5-9-5-9V80c0,0-4-1-4-11c0,0-9.8-3.1-16-10.6C10.2,90.2,36.1,116,68,116c15.2,0,29.1-5.9,39.4-15.5
		c0.8,0.9,2,2.2,3.3,3.7C99.5,114.6,84.5,121,68,121C33.2,121,5,92.6,5,57.5c0-16.4,6.2-31.4,16.3-42.6C23.4,17.2,25,19,25,19l4-4
		c0,0-8-9-11-12c-2-2-6,2-4,4c1,1,2.4,2.5,3.9,4.1C6.8,23.2,0,39.3,0,57c0,35.2,26.7,64.1,61,67.6V139c0,0-10,0-13,0c-4,0-5,8,0,8
		c9,0,21,0,32,0c4,0,3-8,0-8c-4,0-12,0-12,0v-14c17.6,0,33.6-6.7,45.6-17.6c1.5,1.6,2.9,3.1,3.8,4.1c2,2,6-2,4-4
		C118.7,104.7,113.4,98.8,111.4,96.5z"/>
</svg>
