<svg viewBox="0 0 300.65 284" class="thumbnail">
  <path d="M158.94,3A139,139,0,0,0,22,116.49c-.17.94-9.75-.07-17.37.12a1.67,1.67,0,0,0-1.3,2.66L30,163.42a5,5,0,0,0,7.41.75c9.52-8.74,23.11-35.92,28.58-44.53a1.69,1.69,0,0,0-1.45-2.6c-5.47.06-16.24.14-16.17-.17A112.53,112.53,0,0,1,159.65,29c61.65.8,111.52,51.8,111,113.46A112.51,112.51,0,0,1,65.55,205.4c-.55-.79-1.07-1.6-1.6-2.4H33.73c.36.75.72,1.49,1.1,2.23A139,139,0,0,0,297.65,141C297.11,65,234.88,3.15,158.94,3Z"/>
  <polygon points="150.65 54 150.65 147 216.65 185 223.65 174 163.65 139 163.65 54 150.65 54"/>
</svg>
