<svg viewBox="0 0 504.84 402.59" class="thumbnail">
  <path d="M369,402.59l11-18s-20.91-8.49-28-11c-48-17-84-52-84-127,0-18.5,1-55.52,0-74-6-116-68-140-111-160C121.31-4,0,.59,0,.59s29.35,90.61,40,163c5,34,19,80,51,115,33.62,36.77,139,72,139,72s-65-61-74-115c-11.16-67-58-144-58-144s61.44,34.55,79,96c16,56,42.81,109.32,79,153C285,375.59,369,402.59,369,402.59Z"/>
  <path d="M298,265.59s-16-115,69-152c31-13.51,114-73,114-73s53.65,108.51,0,176c-31,39-155,57-155,57s1.71-32.26,57.5-66.5c44-27,37.5-60.5,37.5-60.5s-19.5,37.5-54,50C314.11,215.75,298,265.59,298,265.59Z"/>
</svg>
