<svg viewBox="0 0 300 301" class="thumbnail">
	<path d="M135,0C102,0,41,0,5,0C3.2,0,0,3.2,0,5c1,38,0,101,0,133c0,1.4,2.6,4,4,4c34,0,93,0,132,0c1.8,0,5-3.2,5-5
		c0-33,0-95,0-132C141,3,137,0,135,0z M103,79H76v28H66V79H38V69h28V41h10v28h27V79z"/>
	<path d="M294,0c-33,0-94,0-130,0c-1.8,0-5,3.2-5,5c1,38,0,101,0,133c0,1.4,2.6,4,4,4c34,0,93,0,132,0c1.8,0,5-3.2,5-5
		c0-33,0-95,0-132C300,3,296,0,294,0z M262.5,78.5h-66v-9h66V78.5z"/>
	<path d="M135,159c-33,0-94,0-130,0c-1.8,0-5,3.2-5,5c1,38,0,101,0,133c0,1.4,2.6,4,4,4c34,0,93,0,132,0c1.8,0,5-3.2,5-5
		c0-33,0-95,0-132C141,162,137,159,135,159z M97,252l-7,7l-20-20l-19,20l-7-7l19-20l-20-19l7-7l20,19l19-19l8,8l-19,19L97,252z"/>
	<path d="M294,159c-33,0-94,0-130,0c-1.8,0-5,3.2-5,5c1,38,0,101,0,133c0,1.4,2.6,4,4,4c34,0,93,0,132,0c1.8,0,5-3.2,5-5
		c0-33,0-95,0-132C300,162,296,159,294,159z M232,200c3.9,0,7,3.1,7,7c0,3.9-3.1,7-7,7s-7-3.1-7-7C225,203.1,228.1,200,232,200z
		 M232,255c-3.9,0-7-3.1-7-7c0-3.9,3.1-7,7-7s7,3.1,7,7C239,251.9,235.9,255,232,255z M269,231h-76v-7h76V231z"/>
</svg>
