<svg viewBox="0 0 1366 768">
<style type="text/css">
	.st0{fill:#FFFFFF;}
	.st1{font-family:'MyriadPro-Regular';}
	.st2{font-size:310px;}
	.st3{font-size:254.8266px;}
</style>
<g>
	<path d="M826.5,533.5c-133.4,0-242-89.5-242-199.5s108.6-199.5,242-199.5s242,89.5,242,199.5c0,31-8.4,60.8-25,88.4
		c-9.1,15.2,9.5,30,35.2,50.6c6.2,5,15.2,12.1,21.4,17.8c-0.1,0-0.3,0-0.5,0c-12.5,0-30.8-2-48.5-3.9c-18.5-2-35.9-3.9-48.7-3.9
		c-10.5,0-16.8,1.3-21.2,4.3C937.9,517.1,883,533.5,826.5,533.5z"/>
	<path d="M826.5,146c127.1,0,230.5,84.3,230.5,188c0,28.9-7.9,56.7-23.4,82.5c-7.9,13.2-4.1,27.7,11.5,43.1
		c5.6,5.5,12.7,11.4,20,17.3c-4.2-0.4-8.5-0.9-12.7-1.4c-18.8-2-36.5-4-49.9-4c-13,0-21.3,1.9-27.7,6.3
		c-20.3,13.9-43.1,24.8-67.8,32.4c-25.7,7.8-52.8,11.8-80.5,11.8C699.4,522,596,437.7,596,334S699.4,146,826.5,146 M826.5,123
		c-140,0-253.5,94.5-253.5,211s113.5,211,253.5,211c61.3,0,117.5-18.1,161.3-48.2c2.4-1.6,7.6-2.3,14.7-2.3
		c24.6,0,71.3,7.8,97.1,7.8c8.8,0,15.1-0.9,17.4-3.3c11-11.5-71.6-57.4-63.7-70.7c17.1-28.4,26.7-60.4,26.7-94.3
		C1080,217.5,966.5,123,826.5,123L826.5,123z"/>
</g>
<text transform="matrix(1 0 0 1 732.0332 426.2847)" class="st0 st1 st2">A</text>
<g>
	<path d="M517.6,612.5c-46,0-90.8-13.4-126.1-37.6c-4-2.7-9.5-3.9-18.6-3.9c-10.6,0-25,1.6-40.2,3.2c-12.2,1.3-24.8,2.7-34.5,3.1
		c4.4-3.8,9.5-7.8,13.3-10.9c22-17.5,37.9-30.2,29.4-44.2c-13.5-22.4-20.3-46.5-20.3-71.6c0-89.3,88.3-161.9,196.9-161.9
		s196.9,72.6,196.9,161.9S626.2,612.5,517.6,612.5z"/>
	<path d="M517.6,300.1c102.2,0,185.4,67.5,185.4,150.4c0,83-83.2,150.4-185.4,150.4c-22.4,0-44.2-3.2-65-9.5
		c-19.9-6.1-38.3-14.8-54.6-26.1c-7.6-5.2-17-5.9-25.1-5.9c-10.5,0-24,1.4-38.5,2.9c2.2-2,4.3-3.9,6.3-5.8
		c17.8-17.6,15.3-31.7,10.1-40.4c-12.4-20.6-18.6-42.7-18.6-65.7C332.2,367.6,415.4,300.1,517.6,300.1 M517.6,277.1
		c-115.1,0-208.4,77.7-208.4,173.4c0,27.9,7.9,54.2,21.9,77.5c6.5,10.9-61.4,48.7-52.3,58.1c1.9,2,7.1,2.7,14.3,2.7
		c21.2,0,59.6-6.4,79.8-6.4c5.8,0,10.1,0.5,12.1,1.9c36,24.8,82.2,39.6,132.6,39.6C632.7,624,726,546.3,726,450.6
		S632.7,277.1,517.6,277.1L517.6,277.1z"/>
</g>
<text transform="matrix(1 0 0 1 452.2813 531.4141)" class="st0 st1 st3">รก</text>
</svg>
