<svg viewBox="0 0 188.69 121" class="thumbnail">
  <path d="M125.5,78.5c-3.16-3.13-16-7-14,11,.1.94,1.61-2.17,3.23-5.93,1.77-4.07,3.94-4.07,4.77-4.07,7.07,0,5.53,6.9,5,9-1,4-4,15-24,18a53.35,53.35,0,0,0-9,2c-5,2-6,12,0,12h27c9,0,16-5,16-11,0-2.75.42-8.28,0-11C133.66,93.08,129.4,82.36,125.5,78.5Z"/>
  <path d="M95.5,104.5c-.71-.71,12-7,16.5-10.5,2.68-2.09,4.41-11.23,7-12,1.83-.54,4.5,1.5,4,4-.74,3.68-4,9-7,12C111.5,102.5,96.5,105.5,95.5,104.5Z"/>
  <circle cx="118.75" cy="60.75" r="11.75"/>
  <circle cx="41" cy="13" r="13"/>
  <path d="M3,76c-.25,7.33,10.55,12.25,25.5,13.5,6.41.53,13.79-.19,19.68-2.78C55.5,83.5,53.5,116.5,62.5,120.5c2,.91,5.91,0,6-3,.33-10.68-8.7-35.48-7.57-36.13A14.8,14.8,0,0,0,63,80c1.18-1-13.92-6.3-17.79-19.26Q45.1,60.38,45,60c-.33-1.29-8.92-4.44-11.5-6.5-10-8-10.5-10-12-14-2.41-6.34,2-8.67,4-9,6-1,16.16,15.06,15.5,12.69-.34-1.2-.67-2.29-1-3.19-7.5-20.5-24.5-13.5-28-1C8.16,52.7,3.5,61.5,3,76Z"/>
  <path d="M66,55c3.5.5,5.5,7.5.5,7.5A61.37,61.37,0,0,1,52,60c-8.26-2.88-23.3-12.62-28-20-3.5-5.5,3-8,6-5,3.5,3.5,8.59,9.18,11.5,11.5A39.1,39.1,0,0,0,55,53C57.69,53.59,63.27,54.61,66,55Z"/>
  <path d="M40,91H7L0,121H5l2-10H40l2,10h5ZM8.5,105.5l2-10h26l2,10Z"/>
  <path d="M178.5,78.5c-3.16-3.13-16-7-14,11,.1.94,1.61-2.17,3.23-5.93,1.77-4.07,3.94-4.07,4.77-4.07,7.07,0,5.53,6.9,5,9-1,4-4,15-24,18a53.35,53.35,0,0,0-9,2c-5,2-6,12,0,12h27c9,0,16-5,16-11,0-2.75.42-8.28,0-11C186.66,93.08,182.4,82.36,178.5,78.5Z"/>
  <path d="M148.5,104.5c-.71-.71,12-7,16.5-10.5,2.68-2.09,4.41-11.23,7-12,1.83-.54,4.5,1.5,4,4-.74,3.68-4,9-7,12C164.5,102.5,149.5,105.5,148.5,104.5Z"/>
  <circle cx="171.75" cy="60.75" r="11.75"/>
</svg>
