<svg viewBox="0 0 116.7 175.5" class="thumbnail">
	<path d="M103.9,136.7c-0.1-3,8.7-56.3,6.6-65.3c-2.4-9.9-31.2-53.8-39.5-67.6c-4-6.6-13.3-4-15.4,2.3
		C53.2-0.1,43.8-2.4,40,4.4c-7.8,14.1-35,59-37,69c-1.8,9,9,62,9,65s-12,20-12,23s27,15,32,14c4.6-0.9,23-41.3,25.7-51.2
		c3,9.8,22.9,49.5,27.6,50.3c5,0.8,31.6-12.2,31.5-15.2C116.6,156.3,104,139.7,103.9,136.7z M92.5,72.1c-1.7,8.1-4.4,16.1-6.1,24.2
		c-0.9,4-3.9,2.2-3-0.8c1.8-6.1,4.1-15,6.1-24.2c3.4-16.1-15.7-18.4-19.2-6.3c-3.5,11.8-11,43.7-12.6,54.5c-2-10.6-10.7-42.3-14.6-54
		c-4-12-23-9-19,7c2.3,9.2,5,18,7,24c1,3-2,5-3,1c-2-8-3.9-15-6-23c-5.5-20.5,12-19,12-19c4-8,16.4-31.8,21-42
		c0.3-0.6,0.4-1.1,0.6-1.6c0.2,0.5,0.4,1.1,0.7,1.6c5,10,17.1,33.5,21.4,41.3C77.7,54.7,96.5,52.9,92.5,72.1z"/>
</svg>
