<svg viewBox="0 0 415.52 479.51" class="thumbnail">
  <path d="M389,79.68C356.86,35,311.55,12.37,258.53,3.2,250.36,1.79,242.08,1,233.85,0h-23c-2,.32-3.91.7-5.87,1-13.18,1.76-26.54,2.65-39.5,5.4-37.73,8-70.36,25.21-95.1,55.58C50.77,86,40.16,114,33.8,144.12c-2.44,11.56-1.72,22.18,4.26,32.22,4.77,8,4.29,15.77.21,23.69a65.17,65.17,0,0,1-4.84,8.71c-7.95,10.9-16.24,21.54-24.08,32.51A73,73,0,0,0,1,255.87c-2.42,5.93-.31,10.92,5.37,13.87,4.1,2.13,8.64,3.42,13,5.07,4.19,1.59,8.57,2.81,12.52,4.85,7,3.59,8.71,9.13,5.56,16.33-1.13,2.58-2.67,5-3.95,7.51-3.58,7-2.48,11.26,4.09,15.72,1.86,1.26,3.74,2.5,6.3,4.22-2.74,2.1-4.81,3.68-6.88,5.28-6.67,5.16-6.4,13.66.77,18.23a41.44,41.44,0,0,0,8.18,3.61c8.21,3,9.34,4.83,7.63,13.39s-3.75,16.89-5.11,25.42c-2.3,14.43,4.69,23.84,19.17,25.38,8.41.9,17,.48,25.43,1,10.28.57,20.7.6,30.77,2.42,13.56,2.46,21.83,11.12,24.47,25,1.56,8.21-.24,15.83-2.73,23.49-2.8,8.6,2.45,14.51,11.12,12.49Q257.23,455.61,357.76,432c8.55-2,10.66-6.23,7.87-14.71-2.91-8.84-5.54-17.78-8.44-26.63-10-30.43-6.42-59.41,9.26-87.1,4.76-8.4,9.38-16.88,14.41-25.12,19.08-31.26,32.28-64.33,34.35-101.49C417.18,141.47,409.79,108.67,389,79.68ZM266.65,282.2c-3.66-.13-7.34,0-11.41,0C252,295.66,245,302,234.18,301.82c-10.26-.18-17.18-6.85-19.85-19.64-3.91,0-8-.07-12,0-4.79.11-7.24-2-7.2-6.93.07-8.58.09-17.17,0-25.75-.06-4.82,2-7.17,6.94-7.16q32.49.08,65,0c4.8,0,7.24,2,7.2,6.91-.08,8.58-.11,17.17,0,25.75C274.3,280.3,271.7,282.38,266.65,282.2Zm41.42-132.51a139.89,139.89,0,0,1-8.28,15c-11.42,18.15-23.59,35.93-25.61,58.31H195.23c-2.31-24.25-16.47-43.07-28.43-62.95-17.79-29.58-17.59-60.29,1.14-84.33,18.56-23.82,43.83-33.31,73.39-31.52,20.91,1.27,39.23,9.3,54,24.4C316.65,90.3,321.47,121.13,308.07,149.69Z"/>
</svg>
