<svg viewBox="0 0 310 289" class="thumbnail">
<g>
	<path d="M304.9,157.2c0.6-2.5,0.9-5,0.9-7.5c-0.1-21.7-22.7-40.8-57.9-53.2c7.6-37.7,2.6-67.9-16.5-79.1
		c-19.1-11.2-48.1-0.9-77.4,24.4c-8.5-7.6-17-13.9-25.3-18.6c0-0.4,0-0.8,0-1.1c0-12.2-9.8-22-22-22c-9.3,0-17.2,5.8-20.5,13.9
		c-2.5,0.7-4.8,1.6-7,2.8C59.6,27.4,53.7,57.9,60.4,96.4C23.6,109.1-0.1,129,0,151.3c0.1,22,23.4,41.4,59.4,53.7
		c-2,10.9-3,21.1-2.8,30.3c-0.3,0.2-0.7,0.4-1,0.6c-10.4,6.2-13.8,19.8-7.6,30.2c4.8,8,13.8,11.8,22.4,10.4c1.8,1.8,3.8,3.3,6,4.6
		c18.4,10.8,45.9,1.6,74-21.5c28,25.2,56.1,36,75.2,25.5c19.7-10.8,25.6-41.5,18.7-80.2c12.3-4.2,23.1-9.1,32.2-14.7
		c0.3,0.2,0.7,0.4,1,0.6c10.7,5.8,24,1.8,29.8-8.9C311.8,173.6,310.5,163.9,304.9,157.2z M223.2,29.1c15.1,8.9,19.2,32.9,13.5,63.8
		c-13.8-4-29.1-7-45.5-8.8c-9.7-13.6-20-25.7-30.3-35.8C185.1,28.3,208.1,20.2,223.2,29.1z M202.2,180.1
		c-6,10.2-12.3,19.7-18.8,28.6c-9.1,0.8-18.5,1.3-28.1,1.3c-11.8,0.1-23.3-0.5-34.2-1.6c-6.9-9.9-13.6-20.6-19.9-32
		c-5.2-9.6-9.9-19.2-13.9-28.6c4.2-8.9,8.9-17.9,14.2-26.9c5.3-9,10.8-17.5,16.6-25.5c11.7-1.4,23.9-2.1,36.6-2.2
		c11.5-0.1,22.7,0.5,33.4,1.5c5.4,8.1,10.6,16.7,15.6,25.8c5.4,9.9,10.1,19.7,14.3,29.4C213.4,159.8,208.2,170,202.2,180.1z
		 M223.6,164.2c4.5,12.4,7.9,24.3,10.2,35.5c-10.9,3.1-23,5.6-35.8,7.4c5.1-7.3,10.1-15.1,14.9-23.2
		C216.8,177.3,220.3,170.7,223.6,164.2z M151.7,244.8c-7.9-7.7-15.9-16.6-23.6-26.7c8.2,0.6,16.5,0.8,25.1,0.8
		c7.8,0,15.5-0.3,23-0.9C168.2,228.1,160,237.1,151.7,244.8z M106.2,206.6c-13.4-2-25.9-4.8-37-8.4c2.8-11.6,6.9-24.1,12.2-36.9
		c3.4,7.4,7.1,14.8,11.1,22.3C96.8,191.7,101.4,199.3,106.2,206.6z M82.9,137c-4.3-11.2-7.7-22.1-10.2-32.4
		C82.9,101.5,94,99,106,97.1c-3.8,5.6-7.5,11.5-11,17.5C90.6,122.1,86.5,129.6,82.9,137z M179.9,83c-8.9-0.7-18-1-27.4-1
		c-8.6,0-17,0.4-25.2,1.1c9-11.3,18.2-21.2,27.4-29.5C163.2,62.1,171.7,72,179.9,83z M212.5,118.1c-4.2-7.7-8.6-15.1-13.2-22.1
		c12.6,1.7,24.4,4.1,35.2,7.1c-2.7,11.2-6.6,23.2-11.7,35.5C219.7,131.8,216.2,124.9,212.5,118.1z M84.9,24.9
		C86.3,35.7,95.5,44,106.7,44c8.9,0,16.5-5.2,20-12.8c6.9,4.1,14,9.5,21.2,16c-11.2,10.4-22.4,22.9-33,37.2
		c-16,1.9-31.1,4.9-44.6,8.9C64.2,59.9,68.7,33.8,84.9,24.9z M14.2,152.4c-0.1-17.7,18.7-33.6,48.6-44.5c3.2,13.6,7.8,28,13.8,42.6
		c-6.8,15.6-11.9,30.8-15.2,45.1C32.5,185.1,14.3,169.7,14.2,152.4z M80.6,271.9c8.5-6.8,10.9-18.9,5.1-28.5
		c-4.6-7.6-13-11.4-21.2-10.6c0-7.7,0.9-16.3,2.6-25.4c13.8,4.1,29.3,7.3,45.9,9.2c9.6,13.6,19.8,25.6,30,35.8
		C118.9,272.6,95.8,280.8,80.6,271.9z M219.9,272c-15.1,8.3-37.4-0.1-60.5-20.2c10.7-9.9,21.5-21.8,31.7-35.2
		c15.9-1.9,30.8-4.9,44.3-8.8C240.3,239.2,235.5,263.5,219.9,272z M268.7,160.9c-4.2,7.8-3.2,17,1.8,23.6
		c-7.8,4.6-17.1,8.8-27.6,12.3c-3-14-7.7-28.8-13.8-44c7.3-16,12.8-31.7,16.5-46.4c30.6,10.5,50.1,26.4,50.2,44.3
		C285.6,146.9,274,151.1,268.7,160.9z"/>
	<circle cx="153.7" cy="154" r="42"/>
</g>
</svg>
