<svg viewBox="0 0 118.21 110" class="thumbnail">
  <path d="M78.5,26.5l8-8V8.5c0-2.83-5.17-8-8-8H9.5c-3.18,0-9,5.82-9,9v91c0,2.83,5.17,9,8,9h69c3.18,0,9-5.82,9-9v-41l-8,8v31c0,.9-1.1,3-2,3h-65c-1.06,0-3-2.94-3-4,0-20,1-66,1-86,0-1.06,1.94-3,3-3h62c1.25,0,4,1.75,4,3Z"/>
  <rect x="14.5" y="50.5" width="29" height="8"/>
  <rect x="14.5" y="69.5" width="29" height="8"/>
  <rect x="14.5" y="85.5" width="57" height="8"/>
  <polygon points="54.5 60.5 49.5 75.5 64.5 70.5 54.5 60.5"/>
  <polygon points="56.5 57.5 67.5 67.5 117.5 19.5 107.5 9.5 56.5 57.5"/>
  <path d="M14.5,15.5v26h48l10-9v-17Zm49,18h-40v-9h40Z"/>
</svg>
