<svg viewBox="0 0 136.66 107.5" class="thumbnail">
  <path d="M72.38,107h60c11,0-4-30-19-30-4.47,0,9-2,8-16-.64-9-7-15-17-15-8,0-17,6-17,15,0,12,11,14,6,17-7.33,4.4-26,12-26,12-1-1-7.9-14.08-12-19-5-6-13-1-9,5,3.23,4.85,10,16,14,23,.9,1.58,4.18,2.11,6,2,2.37-.14,10.35-4.35,9-3C73.38,100,72.38,107,72.38,107Z"/>
  <path d="M83.38,62.5c0-11.32,10.07-20.5,22.5-20.5a24.83,24.83,0,0,1,3.49.25c-.08-5.06-.57-34.44-.49-37.75,0-1.41-2.59-4-4-4C77.38,0,30.38,0,3.88.5,2.81.52.38,2.94.38,4V84a3.54,3.54,0,0,0,2.5,2.5c11.43.23,46.87,0,46.87,0S46.27,80.46,42.38,75c-5-7,10-16,15-8,2.23,3.56,12,18,12,18l19.7-8.87A19.43,19.43,0,0,1,83.38,62.5ZM44.38,16h42c3,0,3,6,0,6h-42C41.38,22,41.38,16,44.38,16Zm0,15h42c3,0,3,6,0,6h-42C41.38,37,41.38,31,44.38,31ZM79,51H44c-2.5,0-2.5-6,0-6H79C81.5,45,81.5,51,79,51Z"/>
</svg>
